#define baka_width 9
#define baka_height 7
static char baka_bits[] = {
  0xFE, 0x01, 0xFF, 0x01, 0xFF, 0x00, 0x86, 0x00, 0x82, 0x00, 0x44, 0x00, 
  0x38, 0x00, };
